<svg width="24" height="24" viewBox="0 0 24 24" fill="none" xmlns="http://www.w3.org/2000/svg">
<path d="M10.4 22.1016C10.85 22.2797 11.3333 21.9094 11.3333 21.375V3.68437C11.3333 3.4875 11.2667 3.29062 11.125 3.16875C10.3083 2.4375 8.43333 1.5 6 1.5C3.64583 1.5 1.4625 2.27813 0.375 2.80781C0.141667 2.92031 0 3.18281 0 3.46406V21.2859C0 21.8438 0.533333 22.2328 1.00417 22.0594C2.31667 21.5672 4.39583 21 6 21C7.4125 21 9.29167 21.6562 10.4 22.1016ZM13.6 22.1016C14.7083 21.6562 16.5875 21 18 21C19.6042 21 21.6833 21.5672 22.9958 22.0594C23.4667 22.2375 24 21.8438 24 21.2859V3.46406C24 3.17813 23.8583 2.92031 23.625 2.80781C22.5375 2.27813 20.3542 1.5 18 1.5C15.5667 1.5 13.6917 2.4375 12.875 3.16875C12.7375 3.29062 12.6667 3.4875 12.6667 3.68437V21.375C12.6667 21.9094 13.1542 22.2797 13.6 22.1016Z" fill="#4B2F28"/>
</svg>
