<svg width="267" height="267" viewBox="0 0 267 267" fill="none" xmlns="http://www.w3.org/2000/svg">
<circle cx="133.5" cy="133.5" r="131.5" fill="white" stroke="#EC607C" stroke-width="4"/>
<path d="M167.374 148.647C165.6 146.275 163.011 144.735 160.08 144.312C157.162 143.894 154.226 144.631 151.855 146.403L137.925 156.813C133.282 160.283 132.186 166.698 135.194 171.533C128.643 172.95 117.008 172.341 102.946 157.947C85.3389 138.262 87.6245 124.427 90.9621 117.517C92.1328 118.171 93.4146 118.633 94.7818 118.832C95.3204 118.909 95.8567 118.947 96.3905 118.947C98.7669 118.947 101.07 118.187 103.007 116.739L116.937 106.328C116.939 106.326 116.939 106.326 116.939 106.326C119.311 104.552 120.851 101.963 121.274 99.0315C121.699 96.0977 120.955 93.1756 119.183 90.804L85.8669 46.2271C84.093 43.8555 81.504 42.3153 78.5725 41.8926C75.6504 41.4721 72.7189 42.2114 70.3473 43.9832L56.4175 54.3934C52.3806 57.4104 51.0364 62.6573 52.7189 67.1575C47.3183 70.3054 39.5633 76.6183 35.9703 88.1325C29.1578 109.973 40.4112 139.85 69.4191 176.929C97.3236 212.603 123.116 230.672 146.131 230.669C146.743 230.669 147.355 230.658 147.962 230.632C159.957 230.126 168.279 224.698 173.156 220.256C174.143 220.722 175.18 221.09 176.292 221.251C176.828 221.329 177.367 221.367 177.9 221.367C180.277 221.367 182.58 220.607 184.515 219.158L198.444 208.748C200.818 206.974 202.359 204.383 202.784 201.449C203.206 198.518 202.462 195.595 200.691 193.224L167.374 148.647ZM76.7819 54.2728L108.894 97.2409L96.5723 106.449L64.4608 63.4804L76.7819 54.2728ZM147.454 218.546C134.157 219.149 111.461 211.049 78.9434 169.479C46.1869 127.604 43.7373 104.205 47.4507 91.9472C50.0719 83.2952 56.1188 78.9856 59.5765 77.152L82.6376 108.007C76.8772 116.646 68.4435 137.589 94.0236 166.113C94.0804 166.174 94.1346 166.236 94.1938 166.295C107.448 179.908 120.336 184.122 130.527 184.122C135.293 184.122 139.467 183.199 142.813 181.885L164.917 211.459C161.621 214.433 155.855 218.193 147.454 218.546ZM178.687 208.415C178.225 207.492 177.543 206.664 176.618 206.058C176.282 205.838 175.931 205.66 175.573 205.515L145.968 165.9L158.289 156.693L190.401 199.661L178.687 208.415Z" fill="#EC607C"/>
<path d="M178.271 90.0267C187.592 98.8306 192.317 112.179 192.317 129.7C192.317 131.703 193.942 133.328 195.945 133.328C197.948 133.328 199.573 131.703 199.573 129.7C199.573 110.061 194.06 94.9165 183.187 84.6882C167.523 69.9504 146.634 71.0512 145.746 71.1032C143.75 71.2237 142.231 72.941 142.349 74.9371C142.465 76.9331 144.218 78.4897 146.181 78.3458C146.379 78.3409 164.944 77.4338 178.271 90.0267Z" fill="#EC607C"/>
<path d="M203.908 60.4545C176.173 34.3617 139.177 36.3012 137.613 36.3979C135.615 36.5207 134.091 38.2404 134.214 40.2412C134.334 42.2396 136.016 43.7419 138.057 43.6403C138.4 43.6238 173.462 41.7741 198.936 65.741C216.697 82.4488 225.702 107.656 225.702 140.663C225.702 142.666 227.327 144.291 229.33 144.291C231.333 144.291 232.958 142.666 232.958 140.663C232.958 105.575 223.183 78.5891 203.908 60.4545Z" fill="#EC607C"/>
</svg>
